<svg version="1.1" xmlns="http://www.w3.org/2000/svg" xmlns:xlink="http://www.w3.org/1999/xlink" width="163.75" height="186.6231" viewBox="0,0,163.75,186.6231"><defs><linearGradient x1="240" y1="179.29113" x2="240" y2="220.40584" gradientUnits="userSpaceOnUse" id="color-1"><stop offset="0" stop-color="#32c2fa"/><stop offset="1" stop-color="#32fa42"/></linearGradient><linearGradient x1="240" y1="220.05141" x2="240" y2="261.16613" gradientUnits="userSpaceOnUse" id="color-2"><stop offset="0" stop-color="#32fa42"/><stop offset="1" stop-color="#32c2fa"/></linearGradient><linearGradient x1="240" y1="98.83387" x2="240" y2="139.94859" gradientUnits="userSpaceOnUse" id="color-3"><stop offset="0" stop-color="#32c2fa"/><stop offset="1" stop-color="#32fa42"/></linearGradient><linearGradient x1="240" y1="139.59416" x2="240" y2="180.70887" gradientUnits="userSpaceOnUse" id="color-4"><stop offset="0" stop-color="#32fa42"/><stop offset="1" stop-color="#32c2fa"/></linearGradient><radialGradient cx="236.22162" cy="181.39167" r="69.45671" gradientTransform="translate(-67.75786,-71.79967) scale(0.33222,0.33222)" gradientUnits="userSpaceOnUse" id="color-5"><stop offset="0" stop-color="#00e2ff"/><stop offset="1" stop-color="#005cff"/></radialGradient></defs><g transform="translate(-158.125,-76.15327)"><g data-paper-data="{&quot;isPaintingLayer&quot;:true}" fill-rule="nonzero" stroke-linecap="butt" stroke-linejoin="miter" stroke-miterlimit="10" stroke-dasharray="" stroke-dashoffset="0" style="mix-blend-mode: normal"><path d="M158.125,220.40584v-41.11472h163.75v41.11472z" fill="url(#color-1)" stroke="none" stroke-width="0"/><path d="M158.125,261.16613v-41.11472h163.75v41.11472z" data-paper-data="{&quot;index&quot;:null}" fill="url(#color-2)" stroke="none" stroke-width="0"/><path d="M158.125,139.94859v-41.11472h163.75v41.11472z" fill="url(#color-3)" stroke="none" stroke-width="0"/><path d="M158.125,180.70887v-41.11472h163.75v41.11472z" data-paper-data="{&quot;index&quot;:null}" fill="url(#color-4)" stroke="none" stroke-width="0"/><text transform="translate(203.95454,216.1206) scale(3.01005,3.01005)" font-size="40" xml:space="preserve" fill="#66ffef" fill-rule="nonzero" stroke="url(#color-5)" stroke-width="7" stroke-linecap="butt" stroke-linejoin="miter" stroke-miterlimit="10" stroke-dasharray="" stroke-dashoffset="0" font-family="Sans Serif" font-weight="normal" text-anchor="start" style="mix-blend-mode: normal"><tspan x="0" dy="0">L</tspan></text><path d="M274.69154,196.79582c22.53424,4.86224 37.46573,11.55309 36.6576,17.43814c-1.1489,8.4211 -34.08024,12.00752 -73.55445,8.00262c-39.47561,-4.00491 -70.54311,-14.07713 -69.39422,-22.49942c0.79004,-5.77354 16.51435,-9.27244 39.04303,-9.61298c0,0 -1.43682,1.46886 -1.8527,1.89214c-0.41588,0.42327 -1.19758,1.69309 -1.19758,1.69309c-10.1217,0.86933 -16.60893,2.86339 -17.00395,5.75796c-0.77752,5.68361 22.22545,12.6862 51.37768,15.64192c29.15083,2.95811 53.40981,0.74703 54.18733,-4.93659c0.41867,-3.06123 -6.06579,-6.50618 -16.69657,-9.49667c0,0 -0.50212,-1.46167 -0.68989,-1.91852c-0.18916,-0.45325 -0.87627,-1.96169 -0.87627,-1.96169z" data-paper-data="{&quot;index&quot;:null}" fill="#32c2fa" stroke="none" stroke-width="1" opacity="0.8"/><g data-paper-data="{&quot;index&quot;:null}" fill="none" stroke="#9bb2c2" stroke-width="0.5"><path d="M276.5091,200.67602c10.63078,2.99049 17.11523,6.43543 16.69656,9.49667c-0.77752,5.68361 -25.0365,7.8947 -54.18733,4.93659c-29.15222,-2.95572 -52.15381,-9.9583 -51.37768,-15.64192c0.39363,-2.89456 6.88086,-4.88863 17.00395,-5.75796"/><path d="M274.94154,196.79582c22.53424,4.86224 37.46573,11.55309 36.6576,17.43814c-1.1489,8.4211 -34.08024,12.00752 -73.55445,8.00262c-39.47561,-4.00491 -70.54311,-14.07713 -69.39422,-22.49942c0.79004,-5.77354 16.51435,-9.27244 39.04303,-9.61298"/></g></g></g></svg>